M48
; DRILL file {KiCad (6.0.2)} date Fri Feb 25 22:37:53 2022
; FORMAT={-:-/ absolute / inch / decimal}
; #@! TF.CreationDate,2022-02-25T22:37:53-05:00
; #@! TF.GenerationSoftware,Kicad,Pcbnew,(6.0.2)
; #@! TF.FileFunction,Plated,1,2,PTH
FMAT,2
INCH
; #@! TA.AperFunction,Plated,PTH,ComponentDrill
T1C0.0394
%
G90
G05
T1
X5.1Y-3.45
X5.1Y-4.05
X5.1707Y-4.6024
X5.1707Y-4.7008
X5.1707Y-4.7992
X5.1707Y-4.8976
X5.4Y-4.9
X5.5Y-4.9
X5.7Y-4.6
X5.7Y-4.9
X5.85Y-4.5
X5.85Y-4.9
X6.0Y-3.55
X6.0Y-3.65
X6.0Y-3.95
X6.0Y-4.05
X6.0Y-4.5
X6.0Y-4.9
X6.1779Y-4.0871
X6.1779Y-4.9887
X6.2Y-3.1
X6.2Y-3.2
X6.2Y-3.3
X6.2Y-3.4
X6.3117Y-4.0871
X6.3713Y-3.94
X6.5287Y-3.94
X6.5952Y-4.0871
X6.729Y-4.0871
X6.729Y-4.9887
T0
M30
